# AST/ASF file generated using VICON BodyLanguage
# -----------------------------------------------
:version 1.10
:name VICON
:units
  mass 1.0
  length 0.45
  angle deg
:documentation
   .ast/.asf automatically generated from VICON data using
   VICON BodyBuilder and BodyLanguage model FoxedUp or BRILLIANT.MOD
:root
   order TX TY TZ RX RY RZ
   axis XYZ
   position 0 0 0  
   orientation 0 0 0 
:bonedata
  begin
     id 1 
     name lhipjoint
     direction 0.570549 -0.739093 0.358072 
     length 2.41801 
     axis 0 0 0  XYZ
  end
  begin
     id 2 
     name lfemur
     direction 0.34202 -0.939693 0  
     length 7.44434  
     axis 0 0 20  XYZ
    dof rx ry rz
    limits (-160.0 20.0)
           (-70.0 70.0)
           (-60.0 70.0)
  end
  begin
     id 3 
     name ltibia
     direction 0.34202 -0.939693 0   
     length 7.60047   
     axis 0 0 20   XYZ
    dof rx
    limits (-10.0 170.0)
  end
  begin
     id 4 
     name lfoot
     direction 0.0909041 -0.249757 0.964032   
     length 2.03437   
     axis -90 7.62852e-016 20   XYZ
    dof rx rz
    limits (-45.0 90.0)
           (-70.0 20.0)
  end
  begin
     id 5 
     name ltoes
     direction 1.53547e-011 -4.2174e-011 1   
     length 1.02054   
     axis -90 7.62852e-016 20   XYZ
    dof rx
    limits (-90.0 20.0)
  end
  begin
     id 6 
     name rhipjoint
     direction -0.558096 -0.746754 0.361784   
     length 2.3932  
     axis 0 0 0  XYZ 
  end
  begin
     id 7 
     name rfemur
     direction -0.34202 -0.939693 0   
     length 7.3886   
     axis 0 0 -20   XYZ
    dof rx ry rz
    limits (-160.0 20.0)
           (-70.0 70.0)
           (-70.0 60.0)
  end
  begin
     id 8 
     name rtibia
     direction -0.34202 -0.939693 0   
     length 7.4839   
     axis 0 0 -20   XYZ
    dof rx
    limits (-10.0 170.0)
 end
 begin
     id 9 
     name rfoot
     direction -0.114619 -0.314914 0.942174   
     length 2.25127  
     axis -90 -7.62852e-016 -20   XYZ
    dof rx rz
    limits (-45.0 90.0)
           (-20.0 70.0)
  end
  begin
     id 10 
     name rtoes
     direction -1.53518e-011 -4.21881e-011 1   
     length 1.11821   
     axis -90 -7.62852e-016 -20   XYZ
    dof rx
    limits (-90.0 20.0)
  end
  begin
     id 11 
     name lowerback
     direction -0.00902269 0.996426 -0.0839821   
     length 2.25052   
     axis 0 0 0   XYZ
    dof rx ry rz
    limits (-20.0 45.0)
           (-30.0 30.0)
           (-30.0 30.0)
  end
  begin
     id 12 
     name upperback
     direction 0.0370973 0.999169 -0.0168941   
     length 2.24876   
     axis 0 0 0   XYZ
    dof rx ry rz
    limits (-20.0 45.0)
           (-30.0 30.0)
           (-30.0 30.0)
  end
  begin
     id 13 
     name thorax
     direction 0.0402726 0.998931 0.0227027   
     length 2.26408   
     axis 0 0 0   XYZ
    dof rx ry rz
    limits (-20.0 45.0)
           (-30.0 30.0)
           (-30.0 30.0)
  end
  begin
     id 14 
     name lowerneck
     direction -0.0733697 0.98508 0.155675   
     length 1.58204   
     axis 0 0 0   XYZ
    dof rx ry rz
    limits (-20.0 45.0)
           (-30.0 30.0)
           (-30.0 30.0)
  end
  begin
     id 15 
     name upperneck
     direction 0.0426554 0.993501 -0.105526   
     length 1.61222   
     axis 0 0 0   XYZ
    dof rx ry rz
    limits (-20.0 45.0)
           (-30.0 30.0)
           (-30.0 30.0)
  end
  begin
     id 16
     name head
     direction 0.020792 0.998384 -0.0528868  
     length 1.61527  
     axis 0 0 0   XYZ
    dof rx ry rz
    limits (-20.0 45.0)
           (-30.0 30.0)
           (-30.0 30.0)
  end
  begin
     id 17 
     name lclavicle
     direction 0.967109 0.155462 -0.201325  
     length 3.59357  
     axis 0 0 0   XYZ
    dof ry rz
    limits (-20.0 10.0)
           (0.0 20.0)
  end
  begin
     id 18 
     name lhumerus
     direction 1 -4.48968e-011 2.38195e-027   
     length 5.38154   
     axis 180 -30 -90   XYZ
    dof rx ry rz
    limits (-60.0 90.0)
           (-90.0 90.0)
           (-90.0 90.0)
  end
  begin
     id 19
     name lradius
     direction 1 -4.48961e-011 4.85371e-027   
     length 3.33312   
     axis 180 -30 -90   XYZ
    dof rx
    limits (-10.0 170.0)
  end
  begin
     id 20
     name lwrist
     direction 1 -4.48961e-011 4.76515e-027   
     length 1.66656   
     axis -3.27502e-015 90 90   XYZ
    dof ry
    limits (-180.0 0.0)
 end
  begin
     id 21 
     name lhand
     direction 1 -4.48951e-011 9.53074e-027   
     length 0.710789   
     axis -6.08098e-015 90 90   XYZ
    dof rx rz
    limits (-90.0 90.0)
           (-45.0 45.0)
  end
  begin
     id 22 
     name lfingers
     direction 1 -4.48953e-011 1.90613e-026   
     length 0.573057   
     axis -1.21619e-014 90 90   XYZ
    dof rx
    limits (0.0 90.0)
  end
  begin
     id 23
     name lthumb
     direction 0.707107 -6.34973e-011 0.707107   
     length 0.822798   
     axis -90 45 -9.86923e-015   XYZ
    dof rx rz
    limits (-45.0 45.0)
           (-45.0 45.0)
  end
  begin
     id 24 
     name rclavicle
     direction -0.9585 0.265289 -0.104398   
     length 3.42039  
     axis 0 0 0   XYZ 
    dof ry rz
    limits (-10.0 20.0)
           (-20.0 0.0)
  end
  begin
     id 25 
     name rhumerus
     direction -1 -4.48977e-011 2.21478e-027  
     length 5.16954   
     axis 180 30 90   XYZ
    dof rx ry rz
    limits (-90.0 60.0)
           (-90.0 90.0)
           (-90.0 90.0)
  end
  begin
     id 26 
     name rradius
     direction -1 -4.48967e-011 5.63677e-027   
     length 3.38287   
     axis 180 30 90   XYZ
    dof rx
    limits (-10.0 170.0)
  end
  begin
     id 27 
     name rwrist
     direction -1 -4.48967e-011 4.76501e-027   
     length 1.69144   
     axis -3.27502e-015 -90 -90   XYZ
    dof ry
    limits (-180.0 0.0)
  end
  begin
     id 28
     name rhand
     direction -1 -4.48902e-011 9.53292e-027   
     length 0.817967   
     axis -6.08098e-015 -90 -90   XYZ
    dof rx rz
    limits (-90.0 90.0)
           (-45.0 45.0)
  end
  begin
     id 29
     name rfingers
     direction -1 -4.49012e-011 1.90561e-026   
     length 0.659466   
     axis -1.21619e-014 -90 -90   XYZ
    dof rx
    limits (0.0 90.0)
  end
  begin
     id 30
     name rthumb
     direction -0.707107 -6.34944e-011 0.707107   
     length 0.946865   
     axis -90 -45 9.86923e-015   XYZ
    dof rx rz
    limits (-45.0 45.0)
           (-45.0 45.0)
  end
:hierarchy
  begin
    root lhipjoint rhipjoint lowerback
    lhipjoint lfemur
    lfemur ltibia
    ltibia lfoot
    lfoot ltoes
    rhipjoint rfemur
    rfemur rtibia
    rtibia rfoot
    rfoot rtoes
    lowerback upperback
    upperback thorax
    thorax lowerneck lclavicle rclavicle
    lowerneck upperneck
    upperneck head
    lclavicle lhumerus
    lhumerus lradius
    lradius lwrist
    lwrist lhand lthumb
    lhand lfingers
    rclavicle rhumerus
    rhumerus rradius
    rradius rwrist
    rwrist rhand rthumb
    rhand rfingers
  end

#!OML:ASF F:\twosubjects\two\wednesday\Session 1\Justin1.ASF
:FULLY-SPECIFIED
:DEGREES
964
root 9.24799 17.5554 -14.5257 -0.672909 -11.5206 0.849113
lowerback 5.65871 1.83611 2.04794
upperback 1.0655 2.59274 1.29184
thorax -2.04207 1.28135 -0.00867447
lowerneck -18.3297 -0.75917 -10.6417
upperneck 17.0746 1.23328 3.17645
head 8.25588 0.213016 2.95926
rclavicle -1.88845e-014 -1.19271e-014
rhumerus -8.62651 12.8121 -39.7035
rradius 111.548
rwrist -31.8311
rhand -10.0077 33.2492
rfingers 7.12502
rthumb 15.9762 3.88805
lclavicle -1.88845e-014 -1.19271e-014
lhumerus -46.089 -20.8444 88.2373
lradius 123.962
lwrist 7.67564
lhand -5.5388 20.7547
lfingers 7.12502
lthumb 20.2757 49.7164
rfemur -6.89549 5.01515 14.2562
rtibia 22.3336
rfoot -12.1119 -5.47977
rtoes -5.84539
lfemur -3.064 4.67776 -16.3732
ltibia 22.0003
lfoot -15.1 7.68516
ltoes -13.0041
965
root 9.27397 17.5493 -14.5414 -0.630762 -12.1811 1.16853
lowerback 5.8644 2.02518 2.24784
upperback 0.994846 2.85718 0.985673
thorax -2.20035 1.409 -0.462867
lowerneck -18.1904 -0.698394 -10.7946
upperneck 17.0044 1.25069 3.61395
head 8.19946 0.25926 3.13278
rclavicle 4.97459e-014 9.54166e-015
rhumerus -8.38571 11.646 -40.5049
rradius 110.654
rwrist -31.9856
rhand -9.88824 33.1298
rfingers 7.12502
rthumb 16.0913 3.77785
lclavicle 4.97459e-014 9.54166e-015
lhumerus -45.4456 -20.0604 87.6064
lradius 123.973
lwrist 7.31624
lhand -5.65063 20.8769
lfingers 7.12502
lthumb 20.1682 49.85
rfemur -7.56279 5.1278 13.8118
rtibia 22.9514
rfoot -12.2067 -4.99211
rtoes -6.37012
lfemur -3.27628 5.22466 -16.7713
ltibia 22.2494
lfoot -15.1843 7.81039
ltoes -13.4445
966
root 9.29613 17.5427 -14.5481 -0.632971 -12.788 1.64124
lowerback 5.92467 2.26766 2.24159
upperback 0.995157 3.17325 0.657251
thorax -2.2079 1.5657 -0.822053
lowerneck -18.4149 -0.768049 -10.6507
upperneck 17.2213 1.13444 3.66264
head 8.32061 0.212995 3.1187
rclavicle 2.25621e-014 4.77083e-015
rhumerus -8.46781 10.3776 -41.4028
rradius 109.986
rwrist -31.667
rhand -10.4821 33.02
rfingers 7.12502
rthumb 15.5194 3.62284
lclavicle 2.25621e-014 4.77083e-015
lhumerus -44.6525 -19.3698 86.9461
lradius 124.04
lwrist 7.04675
lhand -5.76798 20.6672
lfingers 7.12502
lthumb 20.0554 49.6521
rfemur -8.23912 5.0635 13.2087
rtibia 23.6908
rfoot -12.3338 -4.44268
rtoes -7.09571
lfemur -3.40853 5.74324 -17.3315
ltibia 22.4134
lfoot -15.1896 7.92562
ltoes -14.4315
967
root 9.30909 17.5308 -14.5585 -0.662308 -13.2974 2.10576
lowerback 6.0364 2.51132 2.20168
upperback 0.996453 3.48816 0.255975
thorax -2.23686 1.72168 -1.23985
lowerneck -19.0377 -0.844252 -10.2687
upperneck 17.8825 1.01058 3.61285
head 8.66579 0.157462 3.04304
rclavicle 7.05686e-015 -1.59028e-015
rhumerus -8.61398 8.77084 -42.7566
rradius 109.226
rwrist -30.9656
rhand -12.5898 33.6211
rfingers 7.12502
rthumb 13.4886 4.07789
lclavicle 7.05686e-015 -1.59028e-015
lhumerus -43.5591 -18.8715 86.0464
lradius 123.867
lwrist 6.81446
lhand -6.02012 20.1397
lfingers 7.12502
lthumb 19.813 49.1498
rfemur -8.9186 4.95012 12.6455
rtibia 24.5215
rfoot -12.5657 -3.88423
rtoes -6.70767
lfemur -3.51576 6.22316 -17.8421
ltibia 22.5336
lfoot -15.2212 7.95874
ltoes -14.7013
968
root 9.32084 17.5178 -14.5834 -0.654565 -13.8031 2.55676
lowerback 6.3854 2.73229 2.11756
upperback 0.869314 3.77702 -0.131576
thorax -2.53133 1.86006 -1.63562
lowerneck -19.537 -0.704442 -10.7
upperneck 18.6561 1.13811 4.75612
head 8.99346 0.294057 3.54888
rclavicle 9.29318e-015 -7.95139e-015
rhumerus -8.70273 7.28493 -44.2296
rradius 108.464
rwrist -30.2255
rhand -14.4095 34.4361
rfingers 7.12502
rthumb 11.7342 4.78481
lclavicle 9.29318e-015 -7.95139e-015
lhumerus -42.6104 -18.325 84.9991
lradius 123.914
lwrist 6.40161
lhand -6.62533 19.8904
lfingers 7.12502
lthumb 19.2311 48.9595
rfemur -9.75059 4.94629 12.1224
rtibia 25.4116
rfoot -12.7752 -3.50514
rtoes -6.30593
lfemur -3.75804 6.51778 -18.3238
ltibia 22.7323
lfoot -15.3116 7.99509
ltoes -13.1915
969
root 9.33097 17.502 -14.6122 -0.609669 -14.2958 2.8786
lowerback 6.77147 2.89891 2.01437
upperback 0.723445 3.99441 -0.373598
thorax -2.87794 1.96187 -1.87234
lowerneck -19.0648 -0.741212 -10.6615
upperneck 18.2355 0.995609 4.87033
head 8.77518 0.251593 3.54893
rclavicle -4.00551e-014 -9.14409e-015
rhumerus -8.76524 6.15829 -45.5362
rradius 108.008
rwrist -29.7352
rhand -15.385 34.1525
rfingers 7.12502
rthumb 10.7934 4.44987
lclavicle -4.00551e-014 -9.14409e-015
lhumerus -41.5986 -17.2023 84.0906
lradius 123.917
lwrist 5.81519
lhand -6.95516 20.0786
lfingers 7.12502
lthumb 18.9139 49.179
rfemur -10.6304 5.16327 11.7805
rtibia 26.3384
rfoot -12.9639 -3.42105
rtoes -6.91826
lfemur -4.10426 6.91902 -18.629
ltibia 23.0337
lfoot -15.5567 7.8832
ltoes -11.7521
970
root 9.33405 17.4803 -14.6315 -0.676319 -14.7678 3.14142
lowerback 7.05803 3.02659 1.878
upperback 0.674911 4.15344 -0.568776
thorax -3.07603 2.03805 -2.03056
lowerneck -17.8522 -0.88944 -9.45132
upperneck 16.8623 0.654753 3.27042
head 8.14022 0.031759 2.7229
rclavicle -3.84648e-014 -9.14409e-015
rhumerus -8.85868 5.07962 -46.9362
rradius 107.807
rwrist -29.6394
rhand -16.1647 33.4401
rfingers 7.12502
rthumb 10.0413 3.69968
lclavicle -3.84648e-014 -9.14409e-015
lhumerus -40.2647 -15.8864 83.2077
lradius 123.563
lwrist 5.37422
lhand -6.55119 20.6307
lfingers 7.12502
lthumb 19.3024 49.6928
rfemur -11.2822 5.31333 11.533
rtibia 27.2211
rfoot -13.2303 -3.28689
rtoes -7.99884
lfemur -4.31499 7.64369 -18.8205
ltibia 23.392
lfoot -15.7754 7.61173
ltoes -12.8533
971
root 9.33559 17.4624 -14.6457 -0.707813 -15.0992 3.52697
lowerback 7.18216 3.13146 1.60017
upperback 0.641479 4.26631 -0.774165
thorax -3.17918 2.09483 -2.10698
lowerneck -16.2568 -1.08206 -8.10369
upperneck 15.0118 0.232227 1.39027
head 7.28686 -0.229 1.7998
rclavicle -1.01877e-014 3.97569e-015
rhumerus -8.94343 3.981 -48.3692
rradius 107.786
rwrist -29.9524
rhand -16.7085 32.6224
rfingers 7.12502
rthumb 9.51662 2.85732
lclavicle -1.01877e-014 3.97569e-015
lhumerus -38.7042 -14.8957 82.1378
lradius 123.195
lwrist 5.08858
lhand -5.93849 20.9832
lfingers 7.12502
lthumb 19.8915 49.9852
rfemur -11.9193 5.39556 11.1246
rtibia 28.0536
rfoot -13.4954 -3.17191
rtoes -8.05219
lfemur -4.62515 8.16814 -19.1967
ltibia 23.8244
lfoot -15.7278 7.5086
ltoes -15.3605
972
root 9.34067 17.4518 -14.6564 -0.654311 -15.2973 3.95191
lowerback 7.06535 3.18065 1.23059
upperback 0.733664 4.2968 -0.892868
thorax -3.03522 2.11683 -2.01513
lowerneck -15.1769 -1.17109 -7.41323
upperneck 13.2797 -0.00166495 0.372767
head 6.55251 -0.35081 1.32146
rclavicle -3.47873e-015 1.03368e-014
rhumerus -8.81784 3.01194 -49.6725
rradius 107.812
rwrist -30.2681
rhand -17.4596 31.6909
rfingers 7.12502
rthumb 8.79181 1.89405
lclavicle -3.47873e-015 1.03368e-014
lhumerus -36.993 -13.5874 81.0338
lradius 122.94
lwrist 4.88891
lhand -5.56623 20.5592
lfingers 7.12502
lthumb 20.2493 49.5237
rfemur -12.6574 5.47785 10.624
rtibia 28.971
rfoot -13.8668 -3.09414
rtoes -7.35175
lfemur -5.0813 8.52094 -19.6715
ltibia 24.2986
lfoot -15.7838 7.41459
ltoes -16.2045
973
root 9.33558 17.4358 -14.6719 -0.581345 -15.3109 4.23859
lowerback 6.78918 3.19366 0.886475
upperback 1.02113 4.28418 -0.933883
thorax -2.60688 2.12102 -1.83525
lowerneck -15.413 -1.06376 -7.72403
upperneck 12.901 0.149538 0.852699
head 6.46225 -0.242375 1.53979
rclavicle -4.1049e-014 1.70955e-014
rhumerus -8.47798 1.92922 -51.0788
rradius 107.763
rwrist -30.2292
rhand -18.7787 31.9418
rfingers 7.12502
rthumb 7.51877 2.09541
lclavicle -4.1049e-014 1.70955e-014
lhumerus -34.8985 -12.0523 80.0737
lradius 122.508
lwrist 4.74404
lhand -5.28638 20.0541
lfingers 7.12502
lthumb 20.5182 48.9898
rfemur -13.3757 5.27861 10.3214
rtibia 29.9698
rfoot -14.3459 -2.98929
rtoes -7.51728
lfemur -5.62091 9.12108 -19.9041
ltibia 24.8991
lfoot -16.0107 6.8364
ltoes -15.9599
974
root 9.31846 17.4053 -14.7017 -0.622214 -14.8376 4.89085
lowerback 6.88507 3.1357 0.189578
upperback 1.10079 4.14898 -1.15843
thorax -2.61572 2.0591 -1.67028
lowerneck -17.1629 -1.01423 -8.83109
upperneck 14.897 0.369128 2.6066
head 7.38974 -0.0841701 2.33633
rclavicle 2.21645e-014 -5.1684e-015
rhumerus -8.7148 0.832035 -52.7406
rradius 108.009
rwrist -30.1138
rhand -20.4628 33.3301
rfingers 7.12502
rthumb 5.89306 3.43204
lclavicle 2.21645e-014 -5.1684e-015
lhumerus -32.9518 -10.8802 78.9753
lradius 122.054
lwrist 4.87658
lhand -4.99725 20.0096
lfingers 7.12502
lthumb 20.7961 48.9152
rfemur -13.9804 4.73856 9.68054
rtibia 30.9625
rfoot -14.7561 -3.03175
rtoes -8.12888
lfemur -6.3487 9.54104 -20.4625
ltibia 25.7887
lfoot -16.3485 5.99347
ltoes -16.1389
975
root 9.29853 17.3731 -14.746 -0.594225 -14.4111 5.14943
lowerback 7.53083 3.09274 -0.12749
upperback 0.843273 4.05434 -1.32741
thorax -3.25411 2.00814 -1.71026
lowerneck -17.682 -1.17742 -9.19404
upperneck 15.8491 0.177267 3.2408
head 7.80341 -0.156357 2.59947
rclavicle 4.47266e-016 -3.18055e-015
rhumerus -9.7339 -0.01264 -54.4512
rradius 108.728
rwrist -29.8437
rhand -22.2355 34.2681
rfingers 7.12502
rthumb 4.18138 4.32942
lclavicle 4.47266e-016 -3.18055e-015
lhumerus -31.7107 -9.74524 77.7779
lradius 121.77
lwrist 5.16086
lhand -4.65459 20.1621
lfingers 7.12502
lthumb 21.1253 49.0313
rfemur -14.5981 4.58968 9.50792
rtibia 31.9286
rfoot -15.1449 -3.38597
rtoes -8.36588
lfemur -7.2328 9.73302 -20.5935
ltibia 26.9609
lfoot -16.6335 5.33641
ltoes -16.5121
976
root 9.26929 17.3473 -14.7986 -0.201241 -14.1605 4.28922
lowerback 8.07125 3.10737 0.420648
upperback 0.6382 4.12661 -1.06366
thorax -3.74708 2.03198 -1.7933
lowerneck -17.1142 -1.31795 -9.07367
upperneck 15.239 -0.0507895 2.95522
head 7.51922 -0.273796 2.44851
rclavicle 1.23743e-014 -3.57812e-015
rhumerus -10.6909 -0.886794 -55.9083
rradius 109.6
rwrist -29.3966
rhand -23.9226 34.12
rfingers 7.12502
rthumb 2.55207 4.15556
lclavicle 1.23743e-014 -3.57812e-015
lhumerus -30.2162 -8.63554 77.094
lradius 121.093
lwrist 5.20568
lhand -4.55592 20.0344
lfingers 7.12502
lthumb 21.22 48.8929
rfemur -15.3641 4.94607 10.6032
rtibia 32.8672
rfoot -15.5646 -4.05942
rtoes -8.28667
lfemur -8.38502 10.0407 -19.4935
ltibia 28.3552
lfoot -16.8563 4.65677
ltoes -16.8082
977
root 9.23654 17.3157 -14.838 0.0461481 -13.2899 3.56218
lowerback 8.38568 2.96226 0.771843
upperback 0.639737 3.98114 -0.687581
thorax -3.92853 1.95417 -1.60415
lowerneck -17.0565 -1.42436 -9.68424
upperneck 15.0442 -0.137202 3.43745
head 7.45113 -0.299603 2.69604
rclavicle -3.57812e-015 1.98785e-015
rhumerus -11.4649 -1.80933 -57.0689
rradius 110.424
rwrist -29.1348
rhand -24.6295 33.6135
rfingers 7.12502
rthumb 1.86939 3.64194
lclavicle -3.57812e-015 1.98785e-015
lhumerus -28.2662 -7.72948 76.8357
lradius 120.041
lwrist 5.28861
lhand -4.95553 19.6381
lfingers 7.12502
lthumb 20.8361 48.5392
rfemur -15.694 4.59066 11.5143
rtibia 33.6115
rfoot -15.889 -4.52569
rtoes -8.69982
lfemur -9.44176 10.1116 -18.5463
ltibia 29.7713
lfoot -17.2531 3.75198
ltoes -16.9084
978
root 9.19298 17.2755 -14.8935 0.276669 -11.556 3.13489
lowerback 8.79353 2.43986 0.688988
upperback 0.545508 3.29354 -0.383989
thorax -4.29772 1.61258 -1.18982
lowerneck -17.5199 -1.49433 -10.5717
upperneck 15.555 -0.138651 4.41874
head 7.69944 -0.266734 3.17842
rclavicle 1.49089e-014 4.37326e-015
rhumerus -12.304 -2.41502 -58.4282
rradius 111.247
rwrist -28.7588
rhand -24.2569 32.9504
rfingers 7.12502
rthumb 2.22927 2.98235
lclavicle 1.49089e-014 4.37326e-015
lhumerus -26.5113 -6.64085 76.2593
lradius 119.108
lwrist 5.72763
lhand -5.27504 19.6819
lfingers 7.12502
lthumb 20.5291 48.6165
rfemur -15.8738 3.36794 12.143
rtibia 34.2851
rfoot -16.2194 -4.93192
rtoes -8.89595
lfemur -10.7192 9.95085 -17.8545
ltibia 31.1774
lfoot -17.5339 2.35452
ltoes -17.6347
